<?xml version="1.0" encoding="utf-8"?>
<!-- Generator: Adobe Illustrator 25.3.1, SVG Export Plug-In . SVG Version: 6.00 Build 0)  -->
<svg version="1.1" id="Слой_1" xmlns="http://www.w3.org/2000/svg" xmlns:xlink="http://www.w3.org/1999/xlink" x="0px" y="0px"
	 viewBox="0 0 180 40" style="enable-background:new 0 0 180 40;" xml:space="preserve">
<style type="text/css">
	.st0{fill:#E0E0E0;}
	.st1{fill:url(#SVGID_1_);}
	.st2{fill:url(#SVGID_2_);}
	.st3{fill:none;}
	.st4{fill:#FFFFFF;}
	.st5{fill:url(#acad_1_);}
</style>
<path class="st0" d="M43.74,39.96C43.5,39.98,43.26,40,43.02,40H29.2l2.32-3.43h5.37l-0.2-0.33l-3-4.82c0,0-0.56,0.92-1.3,2.1
	c-0.6,0.95-1.31,2.08-1.95,3.04C30.28,36.79,30.13,37,30,37.2c-0.5,0.72-0.91,1.28-1.13,1.47C28.01,39.43,27.17,40,25.3,40H6.35
	c-3.4,0-6.27-2.79-6.35-6.33c-0.04-1.85,0.66-3.53,1.82-4.73c1.13-1.17,2.68-1.9,4.4-1.9h9.97l-2.58,3.43H6.59
	c-0.81,0-1.54,0.34-2.07,0.89c-0.53,0.56-0.86,1.33-0.86,2.18c0.01,1.69,1.38,3.02,3,3.02h17.86c0.65,0,1.28-0.24,1.74-0.59
	s1.19-1.5,1.19-1.5l2.6-3.86l2.27-3.37l0.14-0.21h3.2L43.74,39.96z"/>
<linearGradient id="SVGID_1_" gradientUnits="userSpaceOnUse" x1="14.0943" y1="31.4644" x2="30.7605" y2="31.4644">
	<stop  offset="0" style="stop-color:#F8C200"/>
	<stop  offset="0.6468" style="stop-color:#554200"/>
	<stop  offset="1" style="stop-color:#000000"/>
</linearGradient>
<path class="st1" d="M30.76,27.04l-2.66,3.43h-6.5c-0.91,0-1.73,0.38-2.33,1c-0.59,0.62-0.96,1.48-0.96,2.43
	c0,0.74,0.23,1.43,0.61,1.99h-4.63c-0.13-0.52-0.19-1.06-0.19-1.62v-0.74c0-3.59,2.79-6.49,6.23-6.49H30.76z"/>
<path class="st0" d="M42.98,6.25l-20.62,5.81l-0.11,0.03c-0.03,0.01-0.07,0.02-0.1,0.02c-0.29,0.07-0.59,0.07-0.89,0h0
	c-0.04-0.01-0.08-0.02-0.12-0.03L0.71,6.26c-0.18-0.05-0.18-0.32,0-0.37l14.54-4.14h0c0,0,0.01,0,0.01,0s0,0,0.01,0l4.22-1.2
	c0.01,0,0.01,0,0.02,0l1.57-0.45c0.42-0.12,0.86-0.12,1.28,0L42.98,5.9C43.15,5.95,43.15,6.2,42.98,6.25z"/>
<linearGradient id="SVGID_2_" gradientUnits="userSpaceOnUse" x1="7.0853" y1="16.7994" x2="37.7937" y2="16.7994">
	<stop  offset="0.2696" style="stop-color:#9B6222"/>
	<stop  offset="0.9262" style="stop-color:#F8C200"/>
</linearGradient>
<path class="st2" d="M36.89,10.16c-0.44-0.25-0.93-0.49-1.46-0.71h0l-0.33,0.09l-0.26,0.08c0,0,0,0,0,0l-9.43,2.66l-1.42,0.4h0
	c0,0,0,0-0.01,0c0,0-0.01,0-0.01,0l-1.71,0.49c-0.36,0.1-0.74,0.1-1.11,0l-0.1-0.03l-1.45-0.41l-1.49-0.42h0l-4.76-1.36l-2.02-0.58
	l-0.7-0.2L7.09,9.15v2.86c0.49,0.54,1.13,1.01,1.87,1.41c0.36,0.2,0.75,0.38,1.15,0.54c0.12,0.05,0.24,0.09,0.36,0.13
	c-0.12,0.05-0.24,0.11-0.36,0.16c-0.31,0.14-0.61,0.3-0.89,0.46c-0.58,0.32-1.08,0.67-1.5,1.04v5.04c2.41,2.15,7.82,3.65,14.11,3.65
	c5.96,0,11.13-1.35,13.71-3.32v-3.45c0.51-0.21,0.98-0.45,1.4-0.69c0.31-0.18,0.6-0.36,0.86-0.56v-5.69
	C37.52,10.54,37.22,10.35,36.89,10.16z M22.21,20.16c-7.47,0-13.52-1.68-13.52-3.75c0-0.44,0.27-0.86,0.78-1.26
	c0.18-0.14,0.4-0.28,0.64-0.42v1.16c2.3,2.19,7.78,3.73,14.17,3.73c3.67,0,7.03-0.51,9.67-1.35C31.61,19.4,27.23,20.16,22.21,20.16z
	 M35.09,13.68c-0.45,0.21-0.97,0.4-1.54,0.58c-0.04,0.01-0.09,0.03-0.14,0.04c-2.16,0.64-5.11,1.03-8.37,1.03
	c-2.86,0-3.44-0.13-1.29-0.13c3.03,0,5.84-0.53,8.13-1.42c0.08-0.03,0.16-0.06,0.24-0.1c1.13-0.46,2.13-1.02,2.96-1.64V9.73
	c0.62,0.29,1.1,0.6,1.43,0.94c0.32,0.33,0.5,0.68,0.5,1.04C37.02,12.43,36.31,13.11,35.09,13.68z"/>
<path class="st3" d="M37.02,11.71c0,0.73-0.71,1.41-1.93,1.97c-0.45,0.21-0.97,0.4-1.54,0.58c-0.04,0.01-0.09,0.03-0.14,0.04
	c-2.16,0.64-5.11,1.03-8.37,1.03c-2.86,0-3.44-0.13-1.29-0.13c3.03,0,5.84-0.53,8.13-1.42c0.08-0.03,0.16-0.06,0.24-0.1
	c1.13-0.46,2.13-1.02,2.96-1.64V9.73c0.62,0.29,1.1,0.6,1.43,0.94C36.85,11,37.02,11.35,37.02,11.71z"/>
<path class="st3" d="M33.94,18.27c-2.33,1.13-6.71,1.89-11.73,1.89c-7.47,0-13.52-1.68-13.52-3.75c0-0.44,0.27-0.86,0.78-1.26
	c0.18-0.14,0.4-0.28,0.64-0.42v1.16c2.3,2.19,7.78,3.73,14.17,3.73C27.94,19.62,31.3,19.11,33.94,18.27z"/>
<g>
	<g id="crypto">
		<path class="st4" d="M72.75,5.94l-0.97,0.65c-0.84-1.2-1.99-1.8-3.44-1.8c-1.16,0-2.13,0.4-2.89,1.21
			c-0.77,0.8-1.15,1.78-1.15,2.93c0,0.75,0.18,1.45,0.53,2.11c0.35,0.66,0.84,1.17,1.45,1.54c0.62,0.36,1.31,0.55,2.07,0.55
			c1.4,0,2.55-0.6,3.43-1.8l0.97,0.69c-0.46,0.74-1.07,1.31-1.84,1.72c-0.77,0.41-1.64,0.61-2.63,0.61c-1.51,0-2.76-0.52-3.75-1.55
			c-0.99-1.03-1.49-2.29-1.49-3.76c0-0.99,0.23-1.92,0.7-2.77c0.46-0.85,1.1-1.52,1.92-1.99c0.81-0.48,1.72-0.72,2.73-0.72
			c0.63,0,1.24,0.1,1.83,0.31c0.59,0.21,1.09,0.48,1.49,0.81C72.12,5,72.47,5.43,72.75,5.94z"/>
		<path class="st4" d="M74.27,3.81h1.25v1.5c0.37-0.59,0.77-1.03,1.18-1.33s0.85-0.44,1.3-0.44c0.34,0,0.7,0.12,1.09,0.35
			l-0.64,1.11c-0.26-0.12-0.47-0.18-0.65-0.18c-0.41,0-0.8,0.18-1.18,0.54c-0.38,0.36-0.67,0.92-0.87,1.68
			c-0.15,0.58-0.23,1.77-0.23,3.55v3.47h-1.25V3.81z"/>
		<path class="st4" d="M78.73,3.81h1.3l3.28,7.9l3.18-7.9h1.31l-5.69,14.02h-1.3l1.84-4.53L78.73,3.81z"/>
		<path class="st4" d="M89.02,3.81h1.23V5.7c0.48-0.72,1.04-1.25,1.67-1.61c0.63-0.36,1.33-0.54,2.11-0.54
			c1.35,0,2.51,0.53,3.48,1.58c0.96,1.05,1.45,2.31,1.45,3.79c0,1.51-0.48,2.79-1.43,3.84c-0.95,1.05-2.11,1.58-3.45,1.58
			c-0.76,0-1.46-0.17-2.09-0.51c-0.64-0.34-1.21-0.85-1.73-1.52v5.52h-1.23V3.81z M93.93,4.82c-1.06,0-1.95,0.4-2.68,1.2
			c-0.73,0.8-1.09,1.79-1.09,2.98c0,0.78,0.16,1.48,0.49,2.1c0.32,0.62,0.79,1.11,1.39,1.48c0.6,0.36,1.24,0.55,1.91,0.55
			c0.66,0,1.28-0.18,1.86-0.55c0.58-0.37,1.04-0.88,1.39-1.54c0.34-0.66,0.52-1.35,0.52-2.07c0-0.73-0.17-1.42-0.51-2.07
			c-0.34-0.65-0.8-1.16-1.38-1.52C95.24,5,94.61,4.82,93.93,4.82z"/>
		<path class="st4" d="M101.94,0h1.23v3.81h1.95v1.14h-1.95v9.12h-1.23V4.95h-1.67V3.81h1.67V0z"/>
		<path class="st4" d="M111.1,3.55c1.47,0,2.69,0.57,3.65,1.72c0.88,1.04,1.32,2.28,1.32,3.71c0,1.43-0.46,2.69-1.39,3.76
			c-0.93,1.07-2.12,1.61-3.58,1.61c-1.46,0-2.66-0.54-3.59-1.61c-0.93-1.07-1.39-2.32-1.39-3.76c0-1.42,0.44-2.65,1.32-3.7
			C108.4,4.12,109.62,3.55,111.1,3.55z M111.09,4.84c-1.02,0-1.9,0.41-2.63,1.22c-0.73,0.81-1.1,1.79-1.1,2.94
			c0,0.74,0.17,1.43,0.5,2.08c0.33,0.64,0.79,1.14,1.35,1.49c0.57,0.35,1.19,0.52,1.87,0.52c0.68,0,1.3-0.17,1.87-0.52
			c0.57-0.35,1.02-0.84,1.35-1.49c0.33-0.64,0.5-1.33,0.5-2.08c0-1.15-0.37-2.13-1.1-2.94C112.98,5.24,112.11,4.84,111.09,4.84z"/>
	</g>
	<g id="crew">
		<path class="st4" d="M130.01,6.07l-1.92,1.13c-0.36-0.41-0.72-0.69-1.07-0.84c-0.35-0.16-0.77-0.24-1.24-0.24
			c-0.86,0-1.56,0.28-2.09,0.83c-0.53,0.55-0.8,1.26-0.8,2.12c0,0.84,0.26,1.52,0.77,2.06c0.51,0.53,1.19,0.8,2.02,0.8
			c1.03,0,1.84-0.38,2.41-1.13l1.82,1.34c-0.99,1.38-2.38,2.06-4.17,2.06c-1.62,0-2.88-0.51-3.8-1.54
			c-0.92-1.03-1.37-2.23-1.37-3.61c0-0.96,0.22-1.84,0.67-2.64c0.45-0.8,1.07-1.44,1.86-1.9c0.8-0.46,1.69-0.69,2.67-0.69
			c0.91,0,1.73,0.2,2.46,0.59C128.95,4.79,129.55,5.35,130.01,6.07z"/>
		<path class="st4" d="M131.2,4.07h1.98v1.24c0.21-0.49,0.5-0.86,0.85-1.12c0.35-0.25,0.74-0.38,1.17-0.38
			c0.3,0,0.61,0.08,0.94,0.25l-0.72,2.13c-0.27-0.15-0.49-0.22-0.67-0.22c-0.35,0-0.65,0.24-0.9,0.71c-0.25,0.47-0.37,1.4-0.37,2.78
			l0.01,0.48v3.99h-2.29V4.07z"/>
		<path class="st4" d="M146.14,9.72h-7.41c0.11,0.7,0.39,1.26,0.86,1.67c0.46,0.41,1.06,0.62,1.78,0.62c0.86,0,1.6-0.32,2.22-0.97
			l1.94,0.98c-0.48,0.74-1.06,1.28-1.74,1.64s-1.48,0.53-2.41,0.53c-1.44,0-2.62-0.49-3.52-1.47c-0.91-0.98-1.36-2.2-1.36-3.67
			c0-1.51,0.45-2.76,1.36-3.75c0.9-0.99,2.04-1.49,3.4-1.49c1.45,0,2.62,0.5,3.53,1.49c0.91,0.99,1.36,2.31,1.36,3.94L146.14,9.72z
			 M143.84,7.77c-0.15-0.55-0.45-1-0.9-1.34c-0.45-0.34-0.97-0.52-1.56-0.52c-0.64,0-1.21,0.19-1.69,0.58
			c-0.3,0.24-0.59,0.67-0.85,1.28H143.84z"/>
		<path class="st4" d="M146.65,4.07h2.26l1.85,5.62l1.99-5.62h1.38l1.95,5.55l1.85-5.55h2.27l-3.35,9.87h-1.46l-1.96-5.62
			l-2.02,5.62h-1.44L146.65,4.07z"/>
	</g>
	<linearGradient id="acad_1_" gradientUnits="userSpaceOnUse" x1="57.2689" y1="29.1853" x2="162" y2="29.1853">
		<stop  offset="0.1766" style="stop-color:#9B6222"/>
		<stop  offset="0.9277" style="stop-color:#F8C200"/>
	</linearGradient>
	<path id="acad" class="st5" d="M58.92,32.25c0.46,0,0.85,0.17,1.17,0.52c0.32,0.34,0.49,0.76,0.49,1.25c0,0.49-0.16,0.91-0.49,1.26
		c-0.32,0.35-0.71,0.52-1.17,0.52c-0.46,0-0.85-0.17-1.17-0.52c-0.32-0.35-0.49-0.77-0.49-1.26c0-0.49,0.16-0.91,0.49-1.25
		C58.08,32.42,58.47,32.25,58.92,32.25z M71.43,23.14h2.88v12.35h-2.88v-1.31c-0.56,0.57-1.13,0.99-1.69,1.24
		c-0.57,0.25-1.18,0.38-1.84,0.38c-1.48,0-2.76-0.62-3.85-1.86c-1.08-1.24-1.62-2.77-1.62-4.61c0-1.91,0.52-3.47,1.57-4.69
		c1.05-1.22,2.32-1.83,3.81-1.83c0.69,0,1.33,0.14,1.94,0.42c0.6,0.28,1.16,0.7,1.68,1.26V23.14z M68.41,25.68
		c-0.89,0-1.63,0.34-2.22,1.02c-0.59,0.68-0.88,1.55-0.88,2.6c0,1.07,0.3,1.94,0.9,2.63c0.6,0.69,1.34,1.03,2.21,1.03
		c0.9,0,1.65-0.34,2.25-1.02c0.6-0.68,0.89-1.56,0.89-2.66c0-1.07-0.3-1.94-0.89-2.61C70.07,26.01,69.32,25.68,68.41,25.68z
		 M88.03,25.63l-2.4,1.42c-0.45-0.51-0.9-0.86-1.34-1.06c-0.44-0.2-0.96-0.3-1.55-0.3c-1.08,0-1.95,0.35-2.61,1.04
		c-0.67,0.69-1,1.58-1,2.66c0,1.05,0.32,1.91,0.96,2.57c0.64,0.66,1.48,1,2.52,1c1.29,0,2.29-0.47,3.01-1.42l2.27,1.67
		c-1.23,1.72-2.97,2.58-5.21,2.58c-2.02,0-3.6-0.64-4.74-1.93c-1.14-1.29-1.71-2.79-1.71-4.52c0-1.2,0.28-2.3,0.83-3.3
		c0.56-1.01,1.33-1.8,2.33-2.37c0.99-0.57,2.11-0.86,3.34-0.86c1.14,0,2.16,0.24,3.07,0.73C86.71,24.04,87.45,24.73,88.03,25.63z
		 M98.66,23.14h2.88v12.35h-2.88v-1.31c-0.56,0.57-1.13,0.99-1.69,1.24c-0.57,0.25-1.18,0.38-1.84,0.38c-1.48,0-2.76-0.62-3.85-1.86
		c-1.08-1.24-1.62-2.77-1.62-4.61c0-1.91,0.52-3.47,1.57-4.69c1.05-1.22,2.32-1.83,3.81-1.83c0.69,0,1.33,0.14,1.94,0.42
		c0.6,0.28,1.16,0.7,1.68,1.26V23.14z M95.63,25.68c-0.89,0-1.63,0.34-2.22,1.02c-0.59,0.68-0.88,1.55-0.88,2.6
		c0,1.07,0.3,1.94,0.9,2.63c0.6,0.69,1.34,1.03,2.21,1.03c0.9,0,1.65-0.34,2.25-1.02c0.6-0.68,0.89-1.56,0.89-2.66
		c0-1.07-0.3-1.94-0.89-2.61C97.29,26.01,96.54,25.68,95.63,25.68z M112.48,18.37h2.88v17.11h-2.88v-1.31
		c-0.56,0.57-1.13,0.99-1.69,1.24c-0.57,0.25-1.18,0.38-1.84,0.38c-1.48,0-2.76-0.62-3.85-1.86c-1.08-1.24-1.62-2.77-1.62-4.61
		c0-1.91,0.52-3.47,1.57-4.69c1.05-1.22,2.32-1.83,3.81-1.83c0.69,0,1.33,0.14,1.94,0.42c0.6,0.28,1.16,0.7,1.68,1.26V18.37z
		 M109.46,25.68c-0.89,0-1.63,0.34-2.22,1.02c-0.59,0.68-0.88,1.55-0.88,2.6c0,1.07,0.3,1.94,0.9,2.63c0.6,0.69,1.34,1.03,2.21,1.03
		c0.9,0,1.65-0.34,2.25-1.02c0.6-0.68,0.89-1.56,0.89-2.66c0-1.07-0.3-1.94-0.89-2.61C111.12,26.01,110.37,25.68,109.46,25.68z
		 M129.34,30.21h-9.25c0.13,0.88,0.49,1.58,1.07,2.09c0.58,0.52,1.32,0.78,2.22,0.78c1.08,0,2-0.4,2.77-1.21l2.43,1.23
		c-0.6,0.92-1.33,1.61-2.17,2.05c-0.84,0.44-1.85,0.66-3.01,0.66c-1.8,0-3.27-0.61-4.4-1.83c-1.13-1.22-1.7-2.75-1.7-4.59
		c0-1.88,0.56-3.45,1.69-4.69c1.13-1.24,2.54-1.87,4.25-1.87c1.81,0,3.28,0.62,4.41,1.87c1.13,1.24,1.7,2.89,1.7,4.93L129.34,30.21z
		 M126.46,27.77c-0.19-0.69-0.57-1.25-1.13-1.68c-0.56-0.43-1.21-0.65-1.95-0.65c-0.8,0-1.51,0.24-2.11,0.73
		c-0.38,0.3-0.73,0.84-1.06,1.6H126.46z M131.22,23.14h2.88v1.42c0.49-0.58,1.04-1.02,1.64-1.31c0.6-0.29,1.26-0.43,1.97-0.43
		c0.72,0,1.36,0.19,1.94,0.57c0.58,0.38,1.04,0.93,1.39,1.66c0.46-0.73,1.02-1.28,1.68-1.66c0.67-0.38,1.39-0.57,2.18-0.57
		c0.82,0,1.53,0.2,2.15,0.61c0.62,0.41,1.06,0.94,1.34,1.6c0.27,0.66,0.41,1.73,0.41,3.21v7.24h-2.9v-6.26
		c0-1.4-0.16-2.35-0.49-2.84c-0.32-0.5-0.81-0.74-1.46-0.74c-0.49,0-0.93,0.15-1.32,0.45c-0.39,0.3-0.68,0.72-0.87,1.25
		c-0.19,0.53-0.28,1.39-0.28,2.57v5.57h-2.9V29.5c0-1.1-0.08-1.9-0.23-2.4c-0.15-0.5-0.38-0.86-0.68-1.11
		c-0.3-0.24-0.67-0.36-1.1-0.36c-0.48,0-0.91,0.15-1.31,0.46c-0.39,0.31-0.68,0.74-0.88,1.29c-0.19,0.55-0.29,1.42-0.29,2.61v5.49
		h-2.88V23.14z M149.84,23.14h2.94l2.98,7.75l3.29-7.75H162L154.81,40h-2.97l2.36-5.44L149.84,23.14z"/>
</g>
</svg>
